/* XPM */
static char *_4516_2b7160eb8975f8f7fc1446f8a9896d5765c2ea13f40f5fb6dcc9a88605a82477[] = {
/* columns rows colors chars-per-pixel */
"128 64 3 1 ",
"  c #464646",
". c #FF7E00",
"X c white",
/* pixels */
"                                                                                                                                ",
"                                                                                                                                ",
"                                                                                                                                ",
"                                                                                                                                ",
"    ........................................................        ........................................................    ",
"    ........................................................        ........................................................    ",
"    ........................................................        ........................................................    ",
"    ........................................................        ........................................................    ",
"    ........................................................        ........................................................    ",
"    ........................................................        ........................................................    ",
"    ........................................................        ........................................................    ",
"    ........................................................        ........................................................    ",
"    ........................................................        ........................................................    ",
"    .............XXXXXXXXX..........XXXXXXXXX...............        ........................................................    ",
"    .............XXXXXXXXX..........XXXXXXXXX...............        ........................................................    ",
"    .............XXXXXXXXX..........XXXXXXXXX...............        ........................................................    ",
"    .............XXXXXXXXX..........XXXXXXXXX...............        ........................................................    ",
"    .............XXXXXXXXX..........XXXXXXXXX...............        ........................................................    ",
"    .............XXXXXXXXX..........XXXXXXXXX...............        ..XXXXXXXXXX..XXXX.......XXXX..XXXXXXXXXXXX..XXXXXXXXXX.    ",
"    .............XXXXXXXXX..........XXXXXXXXX...............        .XXXXXXXXXXX..XXXX.......XXXX..XXXXXXXXXXXX..XXXXXXXXXX.    ",
"    .............XXXXXXXXX..........XXXXXXXXX...............        .XXXXXXXXXXX..XXXXX.....XXXXX..XXXXXXXXXXXX..XXXXXXXXXX.    ",
"    .............XXXXXXXXX..........XXXXXXXXX...............        .XXXXXXXXXXX..XXXXX.....XXXXX..XXXXXXXXXXXX..XXXXXXXXXX.    ",
"    .............XXXXXXXXX..........XXXXXXXXX...............        .XXXX..........XXXXX...XXXXX.......XXXX.........XXXX....    ",
"    .............XXXXXXXXX..........XXXXXXXXX...............        .XXXX..........XXXXX...XXXXX.......XXXX.........XXXX....    ",
"    .............XXXXXXXXX..........XXXXXXXXX...............        .XXXX...........XXXXX.XXXXX........XXXX.........XXXX....    ",
"    .............XXXXXXXXX..........XXXXXXXXX...............        .XXXX...........XXXXX.XXXXX........XXXX.........XXXX....    ",
"    .............XXXXXXXXX..........XXXXXXXXX...............        .XXXX............XXXX.XXXX.........XXXX.........XXXX....    ",
"    .............XXXXXXXXX..........XXXXXXXXX...............        .XXXX............XXXXXXXXX.........XXXX.........XXXX....    ",
"    .............XXXXXXXXX..........XXXXXXXXX...............        .XXXX.............XXXXXXX..........XXXX.........XXXX....    ",
"    .............XXXXXXXXX..........XXXXXXXXX...............        .XXXX.............XXXXXXX..........XXXX.........XXXX....    ",
"    .............XXXXXXXXX..........XXXXXXXXX...............        .XXXX.............XXXXXXX..........XXXX.........XXXX....    ",
"    .............XXXXXXXXX..........XXXXXXXXX...............        .XXXX..............XXXXX...........XXXX.........XXXX....    ",
"    .............XXXXXXXXX..........XXXXXXXXX...............        .XXXXXXXXXXX.......XXXXX...........XXXX.........XXXX....    ",
"    .............XXXXXXXXX..........XXXXXXXXX...............        .XXXXXXXXXXX.......XXXXX...........XXXX.........XXXX....    ",
"    .............XXXXXXXXX..........XXXXXXXXX...............        .XXXXXXXXXXX.......XXXXX...........XXXX.........XXXX....    ",
"    .............XXXXXXXXX..........XXXXXXXXX...............        .XXXXXXXXXXX.......XXXXX...........XXXX.........XXXX....    ",
"    .............XXXXXXXXX..........XXXXXXXXX...............        .XXXX..............XXXXX...........XXXX.........XXXX....    ",
"    .............XXXXXXXXX..........XXXXXXXXX...............        .XXXX.............XXXXXXX..........XXXX.........XXXX....    ",
"    .............XXXXXXXXX..........XXXXXXXXX...............        .XXXX.............XXXXXXX..........XXXX.........XXXX....    ",
"    .............XXXXXXXXX..........XXXXXXXXX...............        .XXXX.............XXXXXXXX.........XXXX.........XXXX....    ",
"    .............XXXXXXXXX..........XXXXXXXXX...............        .XXXX.............XXXXXXXX.........XXXX.........XXXX....    ",
"    .............XXXXXXXXX..........XXXXXXXXX...............        .XXXX............XXXX.XXXX.........XXXX.........XXXX....    ",
"    .............XXXXXXXXX..........XXXXXXXXX...............        .XXXX............XXXX.XXXXX........XXXX.........XXXX....    ",
"    .............XXXXXXXXX..........XXXXXXXXX...............        .XXXX............XXXX..XXXX........XXXX.........XXXX....    ",
"    .............XXXXXXXXX..........XXXXXXXXX...............        .XXXX...........XXXXX..XXXX........XXXX.........XXXX....    ",
"    .............XXXXXXXXX..........XXXXXXXXX...............        .XXXX...........XXXX...XXXXX.......XXXX.........XXXX....    ",
"    .............XXXXXXXXX..........XXXXXXXXX...............        .XXXXXXXXXXX...XXXXX....XXXXX...XXXXXXXXXX......XXXX....    ",
"    .............XXXXXXXXX..........XXXXXXXXX...............        ..XXXXXXXXXX...XXXXX....XXXXX...XXXXXXXXXX......XXXX....    ",
"    .............XXXXXXXXX..........XXXXXXXXX...............        ..XXXXXXXXXX...XXXX.....XXXXX...XXXXXXXXXX......XXXX....    ",
"    .............XXXXXXXXX..........XXXXXXXXX...............        ..XXXXXXXXXX...XXXX......XXXX...XXXXXXXXXX......XXXX....    ",
"    .............XXXXXXXXX..........XXXXXXXXX...............        ........................................................    ",
"    ........................................................        ........................................................    ",
"    ........................................................        ........................................................    ",
"    ........................................................        ........................................................    ",
"    ........................................................        ........................................................    ",
"    ........................................................        ........................................................    ",
"    ........................................................        ........................................................    ",
"    ........................................................        ........................................................    ",
"    ........................................................        ........................................................    ",
"    ........................................................        ........................................................    ",
"                                                                                                                                ",
"                                                                                                                                ",
"                                                                                                                                ",
"                                                                                                                                "
};
