/* XPM */
static char *_5799_fef853c8fc343fb12d9582708501d0f63f1fb8894134ea6daaadbab527c004a6[] = {
/* columns rows colors chars-per-pixel */
"128 64 4 1 ",
"  c #464646",
". c #FF7E00",
"X c #FFC20E",
"o c white",
/* pixels */
"                                                                                                                                ",
"                                                                                                                                ",
"                                                                                                                                ",
"                                                                                                                                ",
"    ........................................................        XXXXXXXXXXXXXXXXXXXXXXXXXXXXXXXXXXXXXXXXXXXXXXXXXXXXXXXX    ",
"    ........................................................        XXXXXXXXXXXXXXXXXXXXXXXXXXXXXXXXXXXXXXXXXXXXXXXXXXXXXXXX    ",
"    ........................................................        XXXXXXXXXXXXXXXXXXXXXXXXXXXXXXXXXXXXXXXXXXXXXXXXXXXXXXXX    ",
"    ........................................................        XXXXXXXXXXXXXXXXXXXXXXXXXXXXXXXXXXXXXXXXXXXXXXXXXXXXXXXX    ",
"    ........................................................        XXXXXXXXXXXXXXXXXXXXXXXXXXXXXXXXXXXXXXXXXXXXXXXXXXXXXXXX    ",
"    ........................................................        XXXXXXXXXXXXXXXXXXXXXXXXXXXXXXXXXXXXXXXXXXXXXXXXXXXXXXXX    ",
"    ........................................................        XXXXXXXXXXXXXXXXXXXXXXXXXXXXXXXXXXXXXXXXXXXXXXXXXXXXXXXX    ",
"    ........................................................        XXXXXXXXXXXXXXXXXXXXXXXXXXXXXXXXXXXXXXXXXXXXXXXXXXXXXXXX    ",
"    ........................................................        XXXXXXXXXXXXXXXXXXXXXXXXXXXXXXXXXXXXXXXXXXXXXXXXXXXXXXXX    ",
"    .............ooooooooo..........ooooooooo...............        XXXXXXXXXXXXXXXXXXXXXXXXXXXXXXXXXXXXXXXXXXXXXXXXXXXXXXXX    ",
"    .............ooooooooo..........ooooooooo...............        XXXXXXXXXXXXXXXXXXXXXXXXXXXXXXXXXXXXXXXXXXXXXXXXXXXXXXXX    ",
"    .............ooooooooo..........ooooooooo...............        XXXXXXXXXXXXXXXXXXXXXXXXXXXXXXXXXXXXXXXXXXXXXXXXXXXXXXXX    ",
"    .............ooooooooo..........ooooooooo...............        XXXXXXXXXXXXXXXXXXXXXXXXXXXXXXXXXXXXXXXXXXXXXXXXXXXXXXXX    ",
"    .............ooooooooo..........ooooooooo...............        XXXXXXXXXXXXXXXXXXXXXXXXXXXXXXXXXXXXXXXXXXXXXXXXXXXXXXXX    ",
"    .............ooooooooo..........ooooooooo...............        XXooooooooooXXooooXXXXXXXooooXXooooooooooooXXooooooooooX    ",
"    .............ooooooooo..........ooooooooo...............        XoooooooooooXXooooXXXXXXXooooXXooooooooooooXXooooooooooX    ",
"    .............ooooooooo..........ooooooooo...............        XoooooooooooXXoooooXXXXXoooooXXooooooooooooXXooooooooooX    ",
"    .............ooooooooo..........ooooooooo...............        XoooooooooooXXoooooXXXXXoooooXXooooooooooooXXooooooooooX    ",
"    .............ooooooooo..........ooooooooo...............        XooooXXXXXXXXXXoooooXXXoooooXXXXXXXooooXXXXXXXXXooooXXXX    ",
"    .............ooooooooo..........ooooooooo...............        XooooXXXXXXXXXXoooooXXXoooooXXXXXXXooooXXXXXXXXXooooXXXX    ",
"    .............ooooooooo..........ooooooooo...............        XooooXXXXXXXXXXXoooooXoooooXXXXXXXXooooXXXXXXXXXooooXXXX    ",
"    .............ooooooooo..........ooooooooo...............        XooooXXXXXXXXXXXoooooXoooooXXXXXXXXooooXXXXXXXXXooooXXXX    ",
"    .............ooooooooo..........ooooooooo...............        XooooXXXXXXXXXXXXooooXooooXXXXXXXXXooooXXXXXXXXXooooXXXX    ",
"    .............ooooooooo..........ooooooooo...............        XooooXXXXXXXXXXXXoooooooooXXXXXXXXXooooXXXXXXXXXooooXXXX    ",
"    .............ooooooooo..........ooooooooo...............        XooooXXXXXXXXXXXXXoooooooXXXXXXXXXXooooXXXXXXXXXooooXXXX    ",
"    .............ooooooooo..........ooooooooo...............        XooooXXXXXXXXXXXXXoooooooXXXXXXXXXXooooXXXXXXXXXooooXXXX    ",
"    .............ooooooooo..........ooooooooo...............        XooooXXXXXXXXXXXXXoooooooXXXXXXXXXXooooXXXXXXXXXooooXXXX    ",
"    .............ooooooooo..........ooooooooo...............        XooooXXXXXXXXXXXXXXoooooXXXXXXXXXXXooooXXXXXXXXXooooXXXX    ",
"    .............ooooooooo..........ooooooooo...............        XoooooooooooXXXXXXXoooooXXXXXXXXXXXooooXXXXXXXXXooooXXXX    ",
"    .............ooooooooo..........ooooooooo...............        XoooooooooooXXXXXXXoooooXXXXXXXXXXXooooXXXXXXXXXooooXXXX    ",
"    .............ooooooooo..........ooooooooo...............        XoooooooooooXXXXXXXoooooXXXXXXXXXXXooooXXXXXXXXXooooXXXX    ",
"    .............ooooooooo..........ooooooooo...............        XoooooooooooXXXXXXXoooooXXXXXXXXXXXooooXXXXXXXXXooooXXXX    ",
"    .............ooooooooo..........ooooooooo...............        XooooXXXXXXXXXXXXXXoooooXXXXXXXXXXXooooXXXXXXXXXooooXXXX    ",
"    .............ooooooooo..........ooooooooo...............        XooooXXXXXXXXXXXXXoooooooXXXXXXXXXXooooXXXXXXXXXooooXXXX    ",
"    .............ooooooooo..........ooooooooo...............        XooooXXXXXXXXXXXXXoooooooXXXXXXXXXXooooXXXXXXXXXooooXXXX    ",
"    .............ooooooooo..........ooooooooo...............        XooooXXXXXXXXXXXXXooooooooXXXXXXXXXooooXXXXXXXXXooooXXXX    ",
"    .............ooooooooo..........ooooooooo...............        XooooXXXXXXXXXXXXXooooooooXXXXXXXXXooooXXXXXXXXXooooXXXX    ",
"    .............ooooooooo..........ooooooooo...............        XooooXXXXXXXXXXXXooooXooooXXXXXXXXXooooXXXXXXXXXooooXXXX    ",
"    .............ooooooooo..........ooooooooo...............        XooooXXXXXXXXXXXXooooXoooooXXXXXXXXooooXXXXXXXXXooooXXXX    ",
"    .............ooooooooo..........ooooooooo...............        XooooXXXXXXXXXXXXooooXXooooXXXXXXXXooooXXXXXXXXXooooXXXX    ",
"    .............ooooooooo..........ooooooooo...............        XooooXXXXXXXXXXXoooooXXooooXXXXXXXXooooXXXXXXXXXooooXXXX    ",
"    .............ooooooooo..........ooooooooo...............        XooooXXXXXXXXXXXooooXXXoooooXXXXXXXooooXXXXXXXXXooooXXXX    ",
"    .............ooooooooo..........ooooooooo...............        XoooooooooooXXXoooooXXXXoooooXXXooooooooooXXXXXXooooXXXX    ",
"    .............ooooooooo..........ooooooooo...............        XXooooooooooXXXoooooXXXXoooooXXXooooooooooXXXXXXooooXXXX    ",
"    .............ooooooooo..........ooooooooo...............        XXooooooooooXXXooooXXXXXoooooXXXooooooooooXXXXXXooooXXXX    ",
"    .............ooooooooo..........ooooooooo...............        XXooooooooooXXXooooXXXXXXooooXXXooooooooooXXXXXXooooXXXX    ",
"    .............ooooooooo..........ooooooooo...............        XXXXXXXXXXXXXXXXXXXXXXXXXXXXXXXXXXXXXXXXXXXXXXXXXXXXXXXX    ",
"    ........................................................        XXXXXXXXXXXXXXXXXXXXXXXXXXXXXXXXXXXXXXXXXXXXXXXXXXXXXXXX    ",
"    ........................................................        XXXXXXXXXXXXXXXXXXXXXXXXXXXXXXXXXXXXXXXXXXXXXXXXXXXXXXXX    ",
"    ........................................................        XXXXXXXXXXXXXXXXXXXXXXXXXXXXXXXXXXXXXXXXXXXXXXXXXXXXXXXX    ",
"    ........................................................        XXXXXXXXXXXXXXXXXXXXXXXXXXXXXXXXXXXXXXXXXXXXXXXXXXXXXXXX    ",
"    ........................................................        XXXXXXXXXXXXXXXXXXXXXXXXXXXXXXXXXXXXXXXXXXXXXXXXXXXXXXXX    ",
"    ........................................................        XXXXXXXXXXXXXXXXXXXXXXXXXXXXXXXXXXXXXXXXXXXXXXXXXXXXXXXX    ",
"    ........................................................        XXXXXXXXXXXXXXXXXXXXXXXXXXXXXXXXXXXXXXXXXXXXXXXXXXXXXXXX    ",
"    ........................................................        XXXXXXXXXXXXXXXXXXXXXXXXXXXXXXXXXXXXXXXXXXXXXXXXXXXXXXXX    ",
"    ........................................................        XXXXXXXXXXXXXXXXXXXXXXXXXXXXXXXXXXXXXXXXXXXXXXXXXXXXXXXX    ",
"                                                                                                                                ",
"                                                                                                                                ",
"                                                                                                                                ",
"                                                                                                                                "
};
